<svg width="16" height="17" viewBox="0 0 16 17" fill="none" xmlns="http://www.w3.org/2000/svg">
<path d="M4.15138 7.83331H11.8494C12.424 7.83331 12.7294 7.15332 12.3474 6.72332L8.49871 2.39331C8.43628 2.32285 8.35961 2.26644 8.27377 2.2278C8.18792 2.18917 8.09485 2.16919 8.00071 2.16919C7.90657 2.16919 7.8135 2.18917 7.72766 2.2278C7.64181 2.26644 7.56514 2.32285 7.50271 2.39331L3.65271 6.72332C3.27071 7.15332 3.57604 7.83331 4.15138 7.83331ZM7.50204 14.606C7.56447 14.6764 7.64114 14.7329 7.72699 14.7715C7.81284 14.8101 7.9059 14.8301 8.00004 14.8301C8.09418 14.8301 8.18725 14.8101 8.2731 14.7715C8.35895 14.7329 8.43562 14.6764 8.49804 14.606L12.3467 10.276C12.7294 9.84665 12.424 9.16665 11.8487 9.16665H4.15138C3.57671 9.16665 3.27138 9.84665 3.65338 10.2766L7.50204 14.606Z" fill="#9E9E9E"/>
</svg>
