<svg width="38" height="43" viewBox="0 0 38 43" fill="none" xmlns="http://www.w3.org/2000/svg">
<path d="M35.996 17.674C35.9731 13.5133 35.7894 11.2598 34.3184 9.79065C32.6388 8.10915 29.9319 8.10915 24.522 8.10915H18.783C13.3731 8.10915 10.6663 8.10915 8.98668 9.79065C7.30518 11.4703 7.30518 14.1771 7.30518 19.587V29.1519C7.30518 34.5618 7.30518 37.2687 8.98668 38.9483C10.6663 40.6298 13.3731 40.6298 18.783 40.6298H24.522C29.9319 40.6298 32.6388 40.6298 34.3184 38.9483C35.9999 37.2687 35.9999 34.5618 35.9999 29.1519V27.2389" stroke="#4005A0" stroke-width="2.86947" stroke-linecap="round"/>
<path d="M1.56641 17.674V29.1519C1.56641 30.674 2.17104 32.1337 3.2473 33.21C4.32356 34.2862 5.78328 34.8908 7.30534 34.8908M30.2611 8.10915C30.2611 6.58708 29.6565 5.12736 28.5802 4.0511C27.5039 2.97485 26.0442 2.37021 24.5222 2.37021H16.8702C9.65639 2.37021 6.04852 2.37021 3.80842 4.61222C2.55733 5.8614 2.00448 7.53525 1.76153 10.0221" stroke="#4005A0" stroke-width="2.86947" stroke-linecap="round"/>
</svg>
