<svg width="48" height="48" viewBox="0 0 48 48" fill="none" xmlns="http://www.w3.org/2000/svg">
<rect width="48" height="48" rx="24" fill="#DECFFC"/>
<path d="M24.2133 22.4933C24.08 22.48 23.92 22.48 23.7733 22.4933C20.6 22.3867 18.08 19.7867 18.08 16.5867C18.08 13.32 20.72 10.6667 24 10.6667C27.2667 10.6667 29.92 13.32 29.92 16.5867C29.9067 19.7867 27.3867 22.3867 24.2133 22.4933Z" stroke="#986CF5" stroke-width="1.5" stroke-linecap="round" stroke-linejoin="round"/>
<path d="M17.5467 27.4133C14.32 29.5733 14.32 33.0933 17.5467 35.24C21.2133 37.6933 27.2267 37.6933 30.8933 35.24C34.12 33.08 34.12 29.56 30.8933 27.4133C27.24 24.9733 21.2267 24.9733 17.5467 27.4133Z" stroke="#986CF5" stroke-width="1.5" stroke-linecap="round" stroke-linejoin="round"/>
</svg>
