<svg width="25" height="26" viewBox="0 0 25 26" fill="none" xmlns="http://www.w3.org/2000/svg">
<path d="M7.8125 13C7.8125 12.7845 7.89481 12.5778 8.04132 12.4255C8.18784 12.2731 8.38655 12.1875 8.59375 12.1875H15.625V6.90625C15.625 5.28125 13.9751 4.0625 12.5 4.0625H5.07812C4.35316 4.06331 3.65811 4.36317 3.14549 4.89631C2.63286 5.42944 2.34453 6.15229 2.34375 6.90625V19.0938C2.34453 19.8477 2.63286 20.5706 3.14549 21.1037C3.65811 21.6368 4.35316 21.9367 5.07812 21.9375H12.8906C13.6156 21.9367 14.3106 21.6368 14.8233 21.1037C15.3359 20.5706 15.6242 19.8477 15.625 19.0938V13.8125H8.59375C8.38655 13.8125 8.18784 13.7269 8.04132 13.5745C7.89481 13.4222 7.8125 13.2155 7.8125 13ZM22.4272 12.4257L18.521 8.36316C18.3733 8.21722 18.1766 8.13706 17.9729 8.13978C17.7692 8.14249 17.5745 8.22786 17.4305 8.37769C17.2864 8.52751 17.2043 8.72994 17.2017 8.94181C17.1991 9.15368 17.2762 9.35822 17.4165 9.51184L19.9888 12.1875H15.625V13.8125H19.9888L17.4165 16.4882C17.3409 16.5629 17.2804 16.6525 17.2387 16.7519C17.197 16.8513 17.1748 16.9584 17.1734 17.0668C17.1721 17.1752 17.1916 17.2829 17.2309 17.3833C17.2702 17.4838 17.3284 17.575 17.4022 17.6517C17.4759 17.7284 17.5637 17.789 17.6603 17.8298C17.7569 17.8707 17.8603 17.891 17.9646 17.8896C18.0689 17.8883 18.1718 17.8652 18.2674 17.8218C18.3629 17.7783 18.4492 17.7155 18.521 17.6368L22.4272 13.5743C22.5736 13.422 22.6559 13.2154 22.6559 13C22.6559 12.7846 22.5736 12.578 22.4272 12.4257Z" fill="white"/>
</svg>
