<svg width="27" height="27" viewBox="0 0 27 27" fill="none" xmlns="http://www.w3.org/2000/svg">
<path d="M25.4781 11.2185C25.1362 10.9423 24.7372 10.7319 24.3076 10.6442C24.0971 10.6003 23.8823 10.5916 23.6675 10.6047C23.4351 10.6179 23.2115 10.6836 22.9791 10.6968C22.133 10.745 21.2605 9.95148 21.1378 9.12725C21.072 8.6976 21.2123 8.26795 21.1948 7.8383C21.1772 7.38672 21.0589 6.93077 20.8309 6.53619C20.3706 5.74703 19.4411 5.25162 18.5336 5.26916C18.0995 5.27792 17.6436 5.40945 17.2578 5.60236C16.8194 5.82157 16.4292 6.13723 16.0127 6.39151C15.6225 6.62826 15.2586 6.87377 14.8026 6.94392C14.43 7.00091 14.0573 7.08421 13.6803 7.13683C12.8385 7.2552 10.7166 7.29904 11.1243 5.90486C11.212 5.60235 11.4136 5.30423 11.7381 5.22532C12.1283 5.12886 12.5185 5.27354 12.9086 5.29546C13.3339 5.31738 13.8776 5.33492 14.2283 5.04995C14.3598 4.94034 14.5396 4.87458 14.6886 4.76936C14.8859 4.62906 15.0657 4.47123 15.2235 4.2871C15.7891 3.6207 15.9513 2.64741 15.697 1.81441C15.4383 0.955109 14.6799 0.279941 13.8162 0.0694996C12.9656 -0.136558 12.0493 0.126495 11.4093 0.713977C10.8525 1.22693 10.585 2.02923 10.5982 2.77455C10.5982 2.99376 10.6552 3.19982 10.6683 3.41026C10.6815 3.60316 10.6596 3.80045 10.6026 3.98897C10.4842 4.38355 10.2255 4.74305 9.90109 4.99295C9.57666 5.24724 9.16893 5.3963 8.75243 5.37876C8.55515 5.36999 8.36662 5.30423 8.17372 5.27792C7.94135 5.24285 7.709 5.256 7.48102 5.30423C6.57349 5.49714 5.7931 6.13723 5.48621 7.01845C5.20124 7.85145 5.35468 8.78528 5.88078 9.49114C6.4025 10.1882 7.30565 10.5872 8.12988 10.4907C9.37499 10.3461 9.37499 9.17986 11.0673 8.65376C11.8652 8.40824 12.6675 8.42139 13.1279 8.42578C13.6671 8.43454 14.1275 8.46085 14.7106 8.63183C15.2717 8.79843 15.7014 9.13163 16.1924 9.43414C16.6308 9.70158 17.0166 10.0435 17.4901 10.2496C17.9724 10.46 18.4678 10.5127 18.9895 10.4864C19.5025 10.46 20.0768 10.3855 20.4144 10.8722C20.7213 11.3193 20.6073 11.8805 20.1776 12.2093C19.8006 12.4987 19.2 12.4899 18.7484 12.4987C18.2091 12.5118 17.6611 12.4987 17.1394 12.3496C16.9027 12.2839 16.6834 12.1786 16.4642 12.0734C16.3108 11.9989 16.1135 11.9463 15.982 11.8542C15.1972 11.3193 14.373 10.631 13.3865 10.5609C12.3387 10.4864 11.475 11.1221 10.6683 11.7052C10.2299 12.0208 9.78711 12.2707 9.261 12.3979C8.74805 12.525 8.19564 12.5425 7.66954 12.5294C6.59102 12.5031 5.57389 12.1041 4.70143 11.4772C4.27617 11.1703 3.86406 10.859 3.35549 10.7099C2.89953 10.5784 2.39973 10.5565 1.93939 10.6749C0.988022 10.9204 0.190099 11.7928 0.0322681 12.7617C-0.134331 13.7745 0.356697 14.8442 1.216 15.3923C1.66757 15.6772 2.17175 15.8 2.70224 15.8044C3.21081 15.8044 3.71938 15.6816 4.22356 15.7912C4.74966 15.9096 5.13547 16.3173 5.24069 16.8478C5.32838 17.3082 5.24069 17.7948 5.25385 18.2639C5.27138 19.2942 5.74049 20.2982 6.70502 20.7629C7.57747 21.1838 8.62529 21.1049 9.42321 20.5569C9.51528 20.4955 9.61174 20.4604 9.7038 20.4078C9.79587 20.3552 9.86602 20.2763 9.94932 20.2105C10.0414 20.1403 10.151 20.1009 10.2431 20.0351C10.357 19.9562 10.471 19.8773 10.585 19.8071C11.0673 19.5134 11.5978 19.3074 12.1502 19.1846C12.6588 19.0706 13.2068 19.0925 13.7241 19.1144C14.2151 19.1364 14.7807 19.1978 15.1227 19.5923C15.2542 19.7414 15.3419 19.8948 15.3419 20.0921C15.3419 20.2105 15.3682 20.3727 15.3419 20.4867C15.3156 20.5963 14.75 21.1268 14.6755 21.1663C14.4124 21.2978 14.1713 21.2364 13.8907 21.1882C13.654 21.1443 13.4304 21.1136 13.1892 21.1136C13.084 21.1136 13.0007 21.0917 12.8955 21.1136C12.764 21.1443 12.6324 21.175 12.5053 21.2145C11.9617 21.3767 11.4926 21.6792 11.1506 22.1352C10.5675 22.9024 10.4535 23.9502 10.8525 24.8227C11.2865 25.7697 12.2773 26.3878 13.3208 26.3484C14.3467 26.3089 15.3287 25.6206 15.6663 24.6385C15.8329 24.1475 15.8241 23.6521 15.7935 23.1435C15.7803 22.9068 15.7715 22.67 15.811 22.4333C15.8504 22.1746 15.9907 21.9423 16.1442 21.7362C16.4511 21.3241 16.9158 21.0479 17.4288 20.9997C17.911 20.9514 18.3933 21.0873 18.8755 21.0303C19.9146 20.912 20.7827 20.171 21.0939 19.1758C21.3921 18.2245 21.0939 17.1416 20.353 16.4752C19.6384 15.8351 18.5423 15.5983 17.648 15.971C17.1745 16.1727 16.7755 16.5059 16.3722 16.8171C15.9206 17.1679 15.4515 17.4528 14.8991 17.6238C14.4037 17.7773 13.8644 17.8825 13.3427 17.8693C12.8429 17.8562 12.3519 17.8386 11.8652 17.7115C11.3435 17.5756 10.8744 17.295 10.4447 16.975C10.0589 16.6856 9.68188 16.4182 9.261 16.1858C8.77874 15.9184 8.26141 15.7912 7.71338 15.8088C7.25304 15.8219 6.70502 15.9491 6.28852 15.6948C5.88517 15.4493 5.74487 14.9451 5.91586 14.5154C6.12192 13.9893 6.65679 13.871 7.16097 13.8227C7.70899 13.7701 8.3184 13.7526 8.86204 13.8403C9.10317 13.8797 10.6639 14.6206 10.8612 14.7522C11.1111 14.9188 11.3566 15.0941 11.6109 15.2564C12.0362 15.5282 12.5009 15.743 13.0095 15.7912C14.1275 15.8877 15.0394 15.0941 15.925 14.5286C16.3502 14.2568 16.8281 14.0112 17.3235 13.8929C17.8409 13.7701 18.3801 13.7613 18.9106 13.792C19.9891 13.8578 20.9668 14.2524 21.7954 14.9407C22.1681 15.252 22.5495 15.5326 23.0142 15.686C23.4833 15.8395 23.9787 15.8482 24.4566 15.7298C25.4211 15.4887 26.1928 14.7171 26.3857 13.735C26.5742 12.7881 26.2322 11.8191 25.4825 11.2141L25.4781 11.2185Z" fill="#986CF5"/>
</svg>
