<svg width="29" height="29" viewBox="0 0 29 29" fill="none" xmlns="http://www.w3.org/2000/svg">
<g clip-path="url(#clip0_25_61642)">
<path d="M15.8861 4.38149C16.2444 4.02326 16.7304 3.82202 17.237 3.82202C17.7437 3.82202 18.2297 4.02326 18.588 4.38149L27.1868 12.9803C27.545 13.3386 27.7462 13.8245 27.7462 14.3312C27.7462 14.8379 27.545 15.3238 27.1868 15.6822L18.588 24.2809C18.2276 24.629 17.7449 24.8216 17.2439 24.8173C16.7429 24.8129 16.2636 24.6119 15.9094 24.2577C15.5551 23.9034 15.3541 23.4241 15.3498 22.9231C15.3454 22.4221 15.538 21.9394 15.8861 21.579L21.0587 16.2421H2.90577C2.39899 16.2421 1.91296 16.0407 1.55461 15.6824C1.19625 15.324 0.994934 14.838 0.994934 14.3312C0.994934 13.8244 1.19625 13.3384 1.55461 12.98C1.91296 12.6217 2.39899 12.4204 2.90577 12.4204H21.0587L15.8861 7.08341C15.5279 6.72508 15.3266 6.23914 15.3266 5.73245C15.3266 5.22576 15.5279 4.73982 15.8861 4.38149Z" fill="#0055A3"/>
</g>
<defs>
<clipPath id="clip0_25_61642">
<rect width="28.6625" height="28.6625" fill="white" transform="translate(0.0394287)"/>
</clipPath>
</defs>
</svg>
