<svg width="60" height="60" viewBox="0 0 60 60" fill="none" xmlns="http://www.w3.org/2000/svg">
<path d="M30 38.9425L21.1525 30.0975L22.9225 28.2975L28.75 34.125V12.5H31.25V34.125L37.075 28.3L38.8475 30.0975L30 38.9425ZM16.54 47.5C15.3883 47.5 14.4275 47.115 13.6575 46.345C12.8875 45.575 12.5017 44.6133 12.5 43.46V37.4025H15V43.46C15 43.845 15.16 44.1983 15.48 44.52C15.8 44.8417 16.1525 45.0017 16.5375 45H43.4625C43.8458 45 44.1983 44.84 44.52 44.52C44.8417 44.2 45.0017 43.8467 45 43.46V37.4025H47.5V43.46C47.5 44.6117 47.115 45.5725 46.345 46.3425C45.575 47.1125 44.6133 47.4983 43.46 47.5H16.54Z" fill="#F3F4F9"/>
</svg>
