<svg width="46" height="51" viewBox="0 0 46 51" fill="none" xmlns="http://www.w3.org/2000/svg">
<path fill-rule="evenodd" clip-rule="evenodd" d="M27.6 50.1141H18.4C9.7267 50.1141 5.3889 50.1141 2.6956 47.2293C-2.74181e-07 44.347 0 39.7048 0 30.4228V20.5772C0 11.2953 -2.74181e-07 6.65305 2.6956 3.77075C5.3889 0.885986 9.7497 0.885986 18.469 0.885986C19.8628 0.885986 20.9783 0.885986 21.919 0.92783C21.8891 1.12474 21.873 1.32412 21.873 1.52841L21.85 8.50403C21.85 11.2042 21.85 13.5918 22.0915 15.5141C22.3537 17.5989 22.954 19.6837 24.5456 21.387C26.1326 23.0854 28.083 23.7303 30.0311 24.0109C31.8274 24.2693 34.0584 24.2693 36.5815 24.2693H45.9011C46 25.5837 46 27.1984 46 29.3472V30.4228C46 39.7048 46 44.347 43.3044 47.2293C40.6111 50.1141 36.2733 50.1141 27.6 50.1141Z" fill="#F3F4F9"/>
</svg>
